<?xml version="1.0" encoding="iso-8859-1"?>
<!-- Generator: Adobe Illustrator 19.0.0, SVG Export Plug-In . SVG Version: 6.00 Build 0)  -->
<svg version="1.1" id="Layer_1" xmlns="http://www.w3.org/2000/svg" xmlns:xlink="http://www.w3.org/1999/xlink" x="0px" y="0px"
	 viewBox="0 0 511.996 511.996" style="enable-background:new 0 0 511.996 511.996;" xml:space="preserve">
<circle style="fill:#FFA733;" cx="376.847" cy="75.986" r="26.388"/>
<path style="fill:#FFFFFF;" d="M376.843,92.372c-9.034,0-16.386-7.351-16.386-16.386c0-9.035,7.351-16.387,16.386-16.387
	c9.035,0,16.387,7.351,16.387,16.387C393.229,85.021,385.878,92.372,376.843,92.372z"/>
<path style="fill:#57565C;" d="M376.843,82.371c-3.521,0-6.384-2.863-6.384-6.384c0-3.522,2.863-6.385,6.384-6.385
	c3.522,0,6.385,2.863,6.385,6.385C383.228,79.506,380.363,82.371,376.843,82.371z"/>
<circle style="fill:#FFA733;" cx="470.602" cy="75.986" r="26.388"/>
<path style="fill:#FFFFFF;" d="M470.605,92.372c-9.034,0-16.386-7.351-16.386-16.386c0-9.035,7.351-16.387,16.386-16.387
	c9.035,0,16.387,7.351,16.387,16.387C486.992,85.021,479.64,92.372,470.605,92.372z"/>
<path style="fill:#57565C;" d="M470.605,82.371c-3.521,0-6.384-2.863-6.384-6.384c0-3.522,2.863-6.385,6.384-6.385
	c3.522,0,6.385,2.863,6.385,6.385C476.99,79.506,474.126,82.371,470.605,82.371z"/>
<path style="fill:#EEBF00;" d="M475.768,262.175c-0.682-40.005-7.214-71.119-19.415-92.478c-0.421-0.736-0.888-1.444-1.398-2.122
	c-1.812-2.401-11.69-14.384-28.304-14.384c-7.201,0-18.001,2.397-28.55,13.817c-8.24,8.921-15.415,21.435-16.469,38.622
	c-4.84,79.006-70.366,74.417-129.679,105.913C145.382,368.135,17.852,414.617,17.852,414.617
	c-7.32,4.027-11.368,12.18-10.149,20.444c1.219,8.266,7.446,14.903,15.618,16.647c3.483,0.742,86.379,18.188,180.38,18.19
	c0.008,0,0.007,0,0.016,0c69.323,0,126.486-9.572,169.877-28.448c27.659-12.033,50.023-28.031,66.467-47.55
	c18.613-22.093,29.832-48.816,33.347-79.431C473.629,312.61,476.246,290.193,475.768,262.175z"/>
<path style="fill:#FFA733;" d="M473.107,224.931L473.107,224.931c-2.468,29.684-7.422,52.844-7.85,54.809
	c-7.047,33.234-22.144,61.395-44.873,83.703c-20.081,19.709-46.29,34.938-77.902,45.262
	c-49.588,16.197-113.321,20.748-189.405,13.526c-0.01-0.001-0.009-0.001-0.017-0.001c-40.317-3.828-78.47-10.402-110.247-17.062
	c-15.66,6.056-24.962,9.448-24.962,9.448c-7.32,4.027-11.368,12.18-10.149,20.444c1.219,8.266,7.446,14.903,15.618,16.647
	c3.483,0.742,86.379,18.188,180.38,18.19c0.008,0,0.007,0,0.016,0c69.323,0,126.485-9.572,169.877-28.448
	c27.659-12.033,50.023-28.031,66.467-47.55c18.613-22.093,29.832-48.816,33.347-79.431c0.224-1.858,2.839-24.275,2.361-52.293
	C475.539,248.746,474.648,236.324,473.107,224.931z"/>
<path style="fill:#CC7400;" d="M38.613,297.456C20.056,219.795,67.969,141.794,145.63,123.237
	c97.077-23.197,194.577,36.695,217.773,133.772c0,0-34.587,70.648-118.618,63.717c-9.436,30.032-33.954,54.496-66.797,62.344
	C115.858,397.915,53.458,359.585,38.613,297.456z"/>
<g>
	<path style="fill:#AA6100;" d="M181.53,149.409c45.768-10.936,91.626-3.398,129.751,17.793
		c-42.825-40.101-104.319-58.62-165.651-43.965C67.969,141.793,20.056,219.794,38.613,297.455
		c8.522,35.668,32.721,63.486,63.542,77.909c-13.096-14.108-22.85-31.679-27.642-51.736
		C55.956,245.965,103.869,167.966,181.53,149.409z"/>
	<path style="fill:#AA6100;" d="M320.955,272.135c-3.667,0-6.872-2.69-7.414-6.426c-3.04-20.985-12.303-39.829-27.526-56.01
		c-2.839-3.017-2.694-7.765,0.322-10.604c3.016-2.84,7.764-2.695,10.604,0.322c17.377,18.467,27.958,40.047,31.449,64.138
		c0.594,4.101-2.248,7.905-6.348,8.5C321.676,272.11,321.313,272.135,320.955,272.135z"/>
	<path style="fill:#AA6100;" d="M269.827,193.472c-1.481,0-2.978-0.438-4.286-1.351c-14.404-10.052-26.312-14.403-26.43-14.446
		c-3.897-1.405-5.917-5.704-4.511-9.602c1.406-3.898,5.708-5.916,9.602-4.511c0.561,0.202,13.909,5.08,29.925,16.256
		c3.397,2.37,4.23,7.047,1.858,10.444C274.527,192.353,272.196,193.472,269.827,193.472z"/>
</g>
<path d="M46.051,207.073c3.703,1.703,8.733-0.778,10.036-3.438c4.85-9.902,10.89-19.216,17.952-27.683
	c2.653-3.182,2.226-7.911-0.956-10.565c-3.182-2.652-7.91-2.225-10.565,0.956c-7.83,9.389-14.527,19.715-19.903,30.693
	C40.791,200.759,42.288,205.343,46.051,207.073z"/>
<path d="M470.605,117.376c22.823,0,41.391-18.567,41.391-41.391c0-22.823-18.568-41.39-41.391-41.39s-41.39,18.567-41.39,41.39
	c0,15.413,8.473,28.874,21,35.998l-12.535,35.222c-3.346-0.938-7.022-1.515-11.03-1.515c-4.413,0-9.925,0.728-15.903,3.193
	L397.551,111.8c12.352-7.169,20.682-20.533,20.682-35.815c0-22.823-18.568-41.39-41.391-41.39s-41.391,18.567-41.391,41.39
	s18.568,41.391,41.391,41.391c2.24,0,4.437-0.185,6.581-0.529l14.284,40.137c-1.708,1.461-3.419,3.094-5.118,4.935
	c-11.226,12.153-17.432,26.705-18.445,43.253c-0.813,13.284-3.496,24.478-8.111,33.858
	c-30.619-91.293-126.738-145.883-222.146-123.09c-19.369,4.629-37.323,12.818-53.363,24.342c-3.365,2.416-4.133,7.104-1.715,10.469
	c2.416,3.364,7.105,4.133,10.469,1.715c14.449-10.381,30.631-17.76,48.097-21.934c45.001-10.755,91.498-3.338,130.921,20.879
	c38.613,23.719,65.916,60.774,77.127,104.57c-2.944,5.12-11.145,18.02-25.201,30.229c-21.582,18.746-47.12,27.967-76.02,27.477
	c2.563-14.609,2.136-29.67-1.347-44.247c-11.386-47.649-59.414-77.15-107.061-65.765c-18.857,4.506-34.827,16.084-44.974,32.602
	c-10.147,16.519-13.253,36-8.748,54.855c7.632,31.943,39.829,51.721,71.774,44.089c4.029-0.963,6.516-5.011,5.553-9.039
	c-0.963-4.03-5.011-6.516-9.039-5.553c-23.898,5.71-47.985-9.086-53.695-32.983c-3.575-14.957-1.109-30.412,6.94-43.516
	c8.048-13.103,20.718-22.289,35.677-25.862c39.602-9.464,78.237,15.385,88.983,54.659c5.025,18.363,5.025,86.374-62.016,102.847
	c-57.918,14.231-116.476-22.057-130.335-80.062c-4.63-19.372-5.031-39.021-1.195-58.398c0.804-4.064-1.838-8.01-5.902-8.814
	c-4.063-0.81-8.01,1.838-8.814,5.902c-4.258,21.509-3.814,43.311,1.32,64.798c8.293,34.704,30.614,62.444,59.504,78.688
	c-43.883,18.117-75.193,29.557-75.537,29.683c-0.36,0.132-17.704,7.241-15.001,28.587c1.436,11.339,10.298,20.505,21.475,22.889
	c3.517,0.75,87.2,18.353,181.959,18.355c70.365,0,128.527-9.781,172.869-29.071c28.731-12.498,52.016-29.185,69.21-49.595
	c19.58-23.239,31.377-51.301,35.059-83.368c0.298-2.476,2.896-25.007,2.414-53.319c-0.703-41.28-7.567-73.604-20.402-96.073
	c-0.575-1.006-4.879-8.956-11.607-12.179l13.128-36.887C466.415,117.215,468.492,117.376,470.605,117.376z M350.456,75.986
	c0-14.573,11.814-26.387,26.388-26.387s26.388,11.814,26.388,26.387s-11.814,26.388-26.388,26.388S350.456,90.56,350.456,75.986z
	 M468.268,262.303c0.466,27.312-2.023,48.898-2.313,51.31c-3.345,29.124-13.986,54.51-31.631,75.453
	c-15.692,18.626-37.132,33.936-63.723,45.504c-42.443,18.463-98.59,27.825-166.899,27.825
	c-93.18-0.002-175.363-17.289-178.815-18.024c-5.081-1.083-9.003-5.265-9.762-10.405c-0.733-4.973,1.63-9.941,5.908-12.526
	c5.077-1.867,41.085-15.201,88.369-35.037c13.192,4.773,27.274,7.35,41.706,7.348c9.444-0.001,19.046-1.098,28.625-3.387
	c32.111-7.674,58.556-31.095,70.266-61.798c42.872,1.832,72.784-15.878,90.555-31.462c20.05-17.585,42.922-44.85,48.568-91.016
	c1.582-12.936,5.672-24.444,14.491-33.992c8.707-9.428,17.336-11.524,23.039-11.406c15.834,0.327,22.928,12.27,23.189,12.726
	C461.408,193.669,467.608,223.574,468.268,262.303z M470.605,49.598c14.573,0,26.388,11.814,26.388,26.387
	s-11.814,26.388-26.388,26.388c-2.439,0-25.62-2.281-26.387-26.388C443.754,61.42,456.032,49.598,470.605,49.598z"/>
<g>
</g>
<g>
</g>
<g>
</g>
<g>
</g>
<g>
</g>
<g>
</g>
<g>
</g>
<g>
</g>
<g>
</g>
<g>
</g>
<g>
</g>
<g>
</g>
<g>
</g>
<g>
</g>
<g>
</g>
</svg>
